HIERARCHY
ROOT Hips
{
    OFFSET 0.000000 0.000000 0.000000
    CHANNELS 6 Xposition Yposition Zposition Zrotation Xrotation Yrotation
    JOINT Spine
    {
        OFFSET -0.000000 7.236184 0.000000
        CHANNELS 3 Zrotation Xrotation Yrotation
        JOINT Spine1
        {
            OFFSET -0.000000 20.420147 0.000000
            CHANNELS 3 Zrotation Xrotation Yrotation
            JOINT Neck
            {
                OFFSET -0.000000 20.336288 1.848754
                CHANNELS 3 Zrotation Xrotation Yrotation
                JOINT Head
                {
                    OFFSET -0.000000 12.354461 -1.764923
                    CHANNELS 3 Zrotation Xrotation Yrotation
                    End Site
                    {
                        OFFSET -0.000000 22.061537 0.000000
                    }
                }
            }
            JOINT LeftShoulder
            {
                OFFSET 3.573296 18.396038 -0.314103
                CHANNELS 3 Zrotation Xrotation Yrotation
                JOINT LeftArm
                {
                    OFFSET 10.880760 0.000000 0.000000
                    CHANNELS 3 Zrotation Xrotation Yrotation
                    JOINT LeftForeArm
                    {
                        OFFSET 27.185530 0.000000 0.000000
                        CHANNELS 3 Zrotation Xrotation Yrotation
                        JOINT LeftHand
                        {
                            OFFSET 27.825975 0.000000 0.000000
                            CHANNELS 3 Zrotation Xrotation Yrotation
                            End Site
                            {
                                OFFSET 13.236923 0.000000 0.000000
                            }
                        }
                    }
                }
            }
            JOINT RightShoulder
            {
                OFFSET -3.474926 18.396038 -0.314103
                CHANNELS 3 Zrotation Xrotation Yrotation
                JOINT RightArm
                {
                    OFFSET -10.880760 0.000000 0.000000
                    CHANNELS 3 Zrotation Xrotation Yrotation
                    JOINT RightForeArm
                    {
                        OFFSET -27.185530 0.000000 0.000000
                        CHANNELS 3 Zrotation Xrotation Yrotation
                        JOINT RightHand
                        {
                            OFFSET -27.825975 0.000000 0.000000
                            CHANNELS 3 Zrotation Xrotation Yrotation
                            End Site
                            {
                                OFFSET -13.236923 0.000000 0.000000
                            }
                        }
                    }
                }
            }
        }
    }
    JOINT LeftUpLeg
    {
        OFFSET 8.824615 0.000000 0.000000
        CHANNELS 3 Zrotation Xrotation Yrotation
        JOINT LeftLeg
        {
            OFFSET -0.000000 -35.111282 0.000000
            CHANNELS 3 Zrotation Xrotation Yrotation
            JOINT LeftFoot
            {
                OFFSET -0.000000 -42.324711 0.000000
                CHANNELS 3 Zrotation Xrotation Yrotation
                JOINT LeftToeBase
                {
                    OFFSET -0.000000 -5.735999 13.236923
                    CHANNELS 3 Zrotation Xrotation Yrotation
                    End Site
                    {
                        OFFSET -0.000000 0.000000 3.529846
                    }
                }
            }
        }
    }
    JOINT RightUpLeg
    {
        OFFSET -8.824615 0.000000 0.000000
        CHANNELS 3 Zrotation Xrotation Yrotation
        JOINT RightLeg
        {
            OFFSET -0.000000 -35.111282 0.000000
            CHANNELS 3 Zrotation Xrotation Yrotation
            JOINT RightFoot
            {
                OFFSET -0.000000 -42.324711 0.000000
                CHANNELS 3 Zrotation Xrotation Yrotation
                JOINT RightToeBase
                {
                    OFFSET -0.000000 -5.735999 13.236923
                    CHANNELS 3 Zrotation Xrotation Yrotation
                    End Site
                    {
                        OFFSET -0.000000 0.000000 3.529846
                    }
                }
            }
        }
    }
}
MOTION
Frames:    14
Frame Time:    0.008333
-9.978694    81.758453    108.228371    -2.619781    -7.051896    -179.032013    -2.917144    -11.289734    0.686167    0.772126    6.761960    0.928911    1.978548    3.231397    -1.316628    5.522814    -11.175798    -0.294927    -0.860297    18.035717    -5.094470    -38.349823    46.730053    -44.860497    0.007524    -5.740635    -17.946888    12.287438    -5.464116    2.569790    8.320563    18.927914    -3.569691    27.017050    49.597160    48.779140    -1.675395    -12.099627    29.973066    -7.879364    -11.441214    -3.251971    -2.465850    -7.349657    -7.226827    -1.256917    13.383537    -0.003847    -0.968810    -13.203002    -5.165502    -0.917553    1.459887    1.014436    -2.550357    -1.208689    3.641263    3.373049    3.946361    1.704669    -6.020303    -8.871006    -13.108644    -0.163898    -0.059693    0.177283    
-9.971328    81.754303    108.185287    -2.611906    -7.072453    -179.022507    -2.920874    -11.273524    0.685310    0.798924    6.774973    0.926344    1.969848    3.194831    -1.300760    5.474971    -11.259610    -0.285515    -0.847960    18.013556    -5.088382    -38.431038    46.644150    -44.754326    0.141835    -5.773393    -18.581791    12.047295    -5.472918    2.640884    8.311525    18.909399    -3.555906    26.905827    49.606983    48.842056    -1.552897    -12.304605    30.685915    -7.468961    -11.686135    -3.158367    -2.442682    -7.324212    -7.214951    -1.269138    13.354417    -0.023011    -0.967069    -13.208597    -5.164867    -0.920584    1.469606    1.017769    -2.520316    -1.234986    3.622461    3.347032    4.017687    1.703882    -6.008211    -8.912024    -13.102237    -0.143963    -0.091331    0.155727    
-9.964313    81.750320    108.142410    -2.604338    -7.093248    -179.013412    -2.923670    -11.257213    0.684500    0.823994    6.786891    0.923890    1.961903    3.159025    -1.284679    5.427304    -11.342565    -0.276043    -0.834983    17.991961    -5.081675    -38.509670    46.560482    -44.651581    0.274775    -5.807966    -19.219301    11.815255    -5.482502    2.710721    8.302819    18.891157    -3.541894    26.793606    49.616489    48.905838    -1.428195    -12.506357    31.397703    -7.050943    -11.929895    -3.057246    -2.420475    -7.299725    -7.201873    -1.280526    13.326406    -0.043035    -0.965358    -13.214262    -5.164228    -0.923580    1.479599    1.021064    -2.491213    -1.262737    3.603151    3.321909    4.090856    1.704647    -5.996266    -8.953115    -13.096648    -0.123220    -0.123821    0.133295    
-9.958057    81.746712    108.100342    -2.597476    -7.114317    -179.005203    -2.924916    -11.240870    0.683889    0.846102    6.796662    0.921522    1.955220    3.125633    -1.268353    5.380265    -11.424081    -0.266427    -0.821584    17.971678    -5.074446    -38.583241    46.481556    -44.555241    0.405926    -5.844313    -19.854153    11.600073    -5.492962    2.776141    8.294539    18.873575    -3.527443    26.680344    49.625404    48.970814    -1.302814    -12.702856    32.101444    -6.627143    -12.169996    -2.949803    -2.400366    -7.277373    -7.186879    -1.290281    13.300947    -0.064015    -0.963618    -13.220118    -5.163863    -0.926417    1.489988    1.024181    -2.464167    -1.293128    3.582782    3.298599    4.167130    1.707963    -5.984560    -8.994127    -13.092052    -0.101154    -0.157860    0.109430    
-9.952786    81.743576    108.058990    -2.591561    -7.135938    -178.998062    -2.923932    -11.224489    0.683300    0.863892    6.803754    0.919361    1.950473    3.094911    -1.251539    5.333779    -11.503766    -0.256447    -0.807037    17.952930    -5.066077    -38.650188    46.409153    -44.467690    0.536727    -5.883657    -20.489304    11.404687    -5.505341    2.835504    8.286785    18.856457    -3.511968    26.564041    49.634766    49.038544    -1.177130    -12.895658    32.800373    -6.193312    -12.407906    -2.835483    -2.383203    -7.257645    -7.168594    -1.297411    13.278492    -0.087279    -0.962006    -13.226070    -5.163683    -0.929042    1.500537    1.027065    -2.439772    -1.327243    3.560869    3.277634    4.248066    1.714664    -5.972910    -9.035254    -13.088691    -0.077156    -0.194283    0.083473    
-9.948606    81.740967    108.018181    -2.586637    -7.158060    -178.992218    -2.920512    -11.207631    0.682810    0.877218    6.807587    0.917256    1.947590    3.067171    -1.234095    5.288039    -11.581292    -0.246039    -0.791652    17.936077    -5.056344    -38.709023    46.344494    -44.390858    0.668488    -5.927585    -21.126160    11.229928    -5.521064    2.887004    8.279527    18.839956    -3.495465    26.442060    49.645100    49.111176    -1.051179    -13.085787    33.496815    -5.747159    -12.644578    -2.713823    -2.369046    -7.240637    -7.146735    -1.302001    13.259676    -0.112684    -0.960507    -13.232406    -5.163954    -0.931485    1.511366    1.029746    -2.418084    -1.365659    3.536889    3.259029    4.335141    1.724519    -5.960791    -9.077001    -13.085675    -0.050974    -0.233641    0.055150    
-9.945554    81.738922    107.978180    -2.582592    -7.180325    -178.987823    -2.913846    -11.189924    0.682249    0.884273    6.807363    0.915269    1.948360    3.042790    -1.215868    5.242604    -11.655357    -0.235255    -0.774317    17.921568    -5.044974    -38.758739    46.289108    -44.326942    0.800665    -5.977294    -21.759243    11.076360    -5.541584    2.928553    8.273956    18.824057    -3.477422    26.313919    49.657322    49.188740    -0.926303    -13.272521    34.186024    -5.291257    -12.878709    -2.584753    -2.358031    -7.226355    -7.121044    -1.303621    13.244797    -0.140328    -0.959455    -13.238952    -5.164747    -0.933679    1.522196    1.032151    -2.399133    -1.408206    3.511035    3.243058    4.428281    1.737463    -5.948113    -9.119051    -13.082909    -0.022910    -0.276136    0.024788    
-9.943577    81.737404    107.938232    -2.579360    -7.202689    -178.984833    -2.904115    -11.171111    0.681607    0.885763    6.803285    0.913084    1.952274    3.021657    -1.196629    5.197323    -11.726673    -0.223866    -0.755243    17.909126    -5.031962    -38.798683    46.243546    -44.276779    0.935452    -6.035344    -22.396082    10.940197    -5.569030    2.959819    8.269312    18.808670    -3.457531    26.176855    49.671749    49.273876    -0.800695    -13.458574    34.877262    -4.818758    -13.113649    -2.445112    -2.349937    -7.214038    -7.091932    -1.302533    13.233455    -0.169570    -0.958883    -13.245759    -5.166363    -0.935685    1.532824    1.034349    -2.382403    -1.455327    3.482645    3.229167    4.529426    1.752744    -5.934549    -9.162234    -13.079122    0.006563    -0.322273    -0.007102    
-9.942667    81.736458    107.898750    -2.576850    -7.224659    -178.983353    -2.891069    -11.150921    0.680657    0.880802    6.794882    0.910745    1.960206    3.003788    -1.176387    5.152489    -11.793294    -0.212099    -0.734096    17.899267    -5.017021    -38.827370    46.209034    -44.242786    1.071638    -6.101981    -23.027550    10.820915    -5.603941    2.980096    8.266434    18.793966    -3.435712    26.031584    49.688519    49.366184    -0.675820    -13.641922    35.561825    -4.334510    -13.346745    -2.294167    -2.344637    -7.203583    -7.060095    -1.298948    13.225839    -0.199825    -0.958853    -13.252639    -5.168554    -0.937486    1.542899    1.036322    -2.367902    -1.506349    3.452112    3.217531    4.637939    1.770131    -5.920357    -9.206183    -13.074368    0.035334    -0.370694    -0.038235    
-9.942761    81.736038    107.859100    -2.574869    -7.246069    -178.983276    -2.874571    -11.128765    0.679365    0.869483    6.782108    0.908030    1.972400    2.989354    -1.154977    5.107500    -11.856289    -0.199792    -0.710477    17.891811    -5.000517    -38.845436    46.185055    -44.224987    1.210914    -6.177984    -23.659271    10.714903    -5.646723    2.989807    8.265059    18.779448    -3.411679    25.876474    49.707893    49.467304    -0.550084    -13.824553    36.246822    -3.832143    -13.580476    -2.128147    -2.341740    -7.194331    -7.025295    -1.293078    13.221783    -0.231073    -0.959449    -13.259578    -5.171661    -0.939033    1.552425    1.038015    -2.355145    -1.561397    3.419169    3.207933    4.755185    1.789205    -5.906380    -9.251138    -13.068286    0.061389    -0.420298    -0.066435    
-9.943797    81.736160    107.819519    -2.573162    -7.266381    -178.984558    -2.854878    -11.104782    0.677643    0.852442    6.765469    0.904863    1.988267    2.977793    -1.132756    5.063355    -11.914161    -0.187104    -0.685340    17.886873    -4.982560    -38.851784    46.172024    -44.224575    1.352636    -6.262554    -24.283415    10.619514    -5.696656    2.990093    8.265447    18.765135    -3.385879    25.712814    49.729156    49.576744    -0.424704    -14.003836    36.924469    -3.317353    -13.811464    -1.948407    -2.340896    -7.185965    -6.987459    -1.284962    13.221345    -0.263614    -0.960733    -13.266321    -5.175498    -0.940382    1.561479    1.039490    -2.343841    -1.619607    3.384347    3.200432    4.880475    1.809356    -5.894101    -9.296513    -13.061067    0.082523    -0.469324    -0.089312    
-9.945737    81.736801    107.779572    -2.571447    -7.285329    -178.987106    -2.831993    -11.078927    0.675381    0.830218    6.745754    0.901260    2.007927    2.969180    -1.109690    5.019321    -11.967845    -0.174167    -0.658611    17.883932    -4.964214    -38.847382    46.169071    -44.241169    1.498217    -6.356122    -24.903231    10.527574    -5.753741    2.983073    8.267248    18.750597    -3.358036    25.539589    49.752178    49.695747    -0.299444    -14.180293    37.598644    -2.787969    -14.040015    -1.755951    -2.341564    -7.177972    -6.946116    -1.274939    13.224653    -0.298192    -0.962498    -13.272850    -5.179765    -0.941507    1.569767    1.040719    -2.333517    -1.681038    3.347626    3.195025    5.015021    1.830292    -5.884530    -9.342229    -13.052827    0.097515    -0.517223    -0.105544    
-9.948507    81.738022    107.739342    -2.569353    -7.302425    -178.990753    -2.806593    -11.051427    0.672790    0.804731    6.724202    0.897163    2.030070    2.962598    -1.086447    4.976089    -12.016740    -0.161306    -0.631540    17.882704    -4.946661    -38.832268    46.175407    -44.274845    1.647508    -6.457678    -25.513357    10.432934    -5.816986    2.971271    8.269928    18.735310    -3.329183    25.358200    49.775913    49.824120    -0.175317    -14.351229    38.263672    -2.249924    -14.262743    -1.555196    -2.343292    -7.170055    -6.900599    -1.262920    13.231832    -0.335292    -0.965016    -13.278949    -5.184801    -0.942376    1.577521    1.041664    -2.323709    -1.745057    3.309471    3.191777    5.158659    1.851417    -5.878442    -9.387892    -13.043819    0.105695    -0.562694    -0.114406    
-9.952064    81.739883    107.698776    -2.566600    -7.317535    -178.995346    -2.779480    -11.023249    0.669968    0.778222    6.702768    0.892638    2.053556    2.957674    -1.063468    4.933362    -12.061492    -0.148996    -0.605708    17.882359    -4.931642    -38.807076    46.189629    -44.324577    1.800855    -6.565797    -26.112085    10.331860    -5.884780    2.956723    8.272551    18.718420    -3.299799    25.169361    49.799866    49.962070    -0.052982    -14.515914    38.917473    -1.705591    -14.478376    -1.349409    -2.345638    -7.162253    -6.850176    -1.249041    13.243173    -0.375900    -0.968236    -13.284540    -5.190434    -0.942902    1.584552    1.042233    -2.313897    -1.811969    3.270066    3.190542    5.312310    1.871773    -5.875761    -9.433440    -13.033710    0.107125    -0.606380    -0.115961    
